<svg width="252" height="252" viewBox="0 0 252 252" fill="none" xmlns="http://www.w3.org/2000/svg">
<path d="M97.2068 121.81C95.269 124.498 91.6817 123.549 91.2571 119.794C88.5542 120.461 86.176 122.066 84.5463 124.324C84.0764 125.034 84.1217 125.487 83.847 125.598C83.5522 125.632 83.2535 125.613 82.965 125.543C78.429 125.279 75.1644 128.763 75.909 132.704C74.7011 133.013 73.6345 133.724 72.885 134.72C72.2064 135.574 71.6936 136.548 71.373 137.591C71.7107 137.574 82.4926 137.024 84.4846 136.901C84.4581 135.851 84.4455 134.801 84.4468 133.751C84.3145 131.966 85.1045 130.065 86.9202 130.063C87.329 130.092 87.7259 130.213 88.0815 130.417C88.437 130.621 88.7421 130.902 88.974 131.24C89.4816 132.011 89.8524 132.863 90.0702 133.76L90.961 136.447C92.2311 136.348 97.1186 135.926 100.051 135.602C100.132 130.851 99.1604 126.141 97.2068 121.81ZM89.3344 128.587C88.9559 128.162 88.7177 127.63 88.6521 127.065C88.5865 126.499 88.6967 125.927 88.9677 125.426C89.2452 124.979 89.6361 124.612 90.1008 124.364C90.5655 124.117 91.0874 123.996 91.6137 124.015C91.6528 124.034 91.697 124.04 91.7397 124.031C92.3615 124.151 92.9263 124.472 93.3464 124.946C93.7664 125.42 94.0179 126.019 94.0619 126.651C94.0636 127.199 93.9016 127.736 93.5967 128.192C93.2917 128.648 92.8577 129.003 92.3501 129.211C91.8424 129.419 91.2843 129.47 90.7471 129.359C90.2099 129.248 89.718 128.98 89.3344 128.587Z" fill="#ED6C04"/>
<path d="M91.7421 124.031C91.6994 124.039 91.6552 124.034 91.6161 124.015C91.0898 123.996 90.5679 124.116 90.1032 124.364C89.6385 124.612 89.2476 124.978 88.9701 125.426C88.7654 125.793 88.6485 126.203 88.6286 126.623C88.6086 127.042 88.6861 127.461 88.8549 127.846C89.0238 128.231 89.2795 128.572 89.602 128.842C89.9244 129.111 90.3049 129.303 90.7137 129.401C91.1225 129.499 91.5484 129.501 91.9582 129.407C92.368 129.313 92.7504 129.126 93.0757 128.859C93.4009 128.593 93.6601 128.255 93.8329 127.872C94.0057 127.489 94.0875 127.071 94.0718 126.651C94.0275 126.018 93.7748 125.418 93.3533 124.944C92.9319 124.47 92.3653 124.149 91.7421 124.031Z" fill="#F9EFDD"/>
<path d="M38.7118 205.533L43.7606 191.857C43.9735 191.281 43.0525 191.033 42.8408 191.605L37.792 205.279C37.579 205.856 38.5001 206.105 38.7118 205.533Z" fill="#009D78"/>
<path d="M79.5879 145.983C79.3672 145.664 79.2172 145.301 79.1477 144.92C79.0783 144.538 79.091 144.146 79.1851 143.77C79.2792 143.394 79.4525 143.042 79.6934 142.738C79.9343 142.434 80.2372 142.185 80.582 142.007C81.0015 141.892 81.4417 141.872 81.8699 141.949C82.2981 142.027 82.7033 142.2 83.0554 142.456C83.6325 142.752 84.2285 143.039 84.8093 143.345C84.5901 140.214 84.5573 138.317 84.4994 136.898C82.5073 137.024 70.3218 137.64 69.7889 137.673C68.1156 137.775 66.4549 138.012 64.7904 138.203C61.0311 138.599 57.3403 139.489 53.8133 140.849C47.1353 143.507 43.1159 149.349 42.9219 153.991C42.9824 153.398 43.916 153.398 43.8707 154.005C43.4108 160.255 47.628 165.345 52.5231 169.29C55.634 171.801 58.9428 174.096 62.2868 176.287L74.2883 156.932C71.2643 155.468 68.1983 154.09 65.0903 152.798C64.5309 152.566 64.7766 151.645 65.3423 151.879C70.79 154.126 76.1184 156.652 81.3065 159.447C82.152 156.99 84.2146 151.974 84.2272 150.627C83.5556 148.795 80.742 147.99 79.5879 145.983Z" fill="#FFE100"/>
<path d="M126.196 129.528V129.529L143.305 150.385C136.297 155.513 127.917 157.81 119.174 159.195L118.753 159.262L118.752 159.688C118.749 161.754 118.51 182.088 118.452 190.231C87.59 190.451 69.3496 190.514 58.5752 190.496C47.7814 190.478 44.5046 190.378 43.5381 190.276C43.5037 190.273 43.4781 190.269 43.4541 190.267C43.4513 190.241 43.4482 190.211 43.4463 190.175L43.4453 190.173C43.3821 189.041 43.416 184.04 43.416 161.068C43.416 160.779 43.4131 160.491 43.4111 160.204C45.7529 166.12 50.6207 169.818 55.6758 173.484V173.485C61.8256 178.106 68.4482 182.058 75.4307 185.278L76.832 185.913C80.1554 187.406 83.7094 188.321 87.3408 188.617H87.3516C89.2405 188.73 90.6989 188.068 91.8691 186.961C93.02 185.872 93.8887 184.357 94.6504 182.762C96.384 179.144 97.9252 173.575 99.2227 167.963C100.494 162.465 101.541 156.879 102.307 152.968C103.301 152.557 104.352 152.176 105.392 151.785C106.507 151.366 107.607 150.934 108.558 150.449C109.502 149.967 110.344 149.41 110.909 148.72C111.491 148.009 111.776 147.16 111.596 146.16L111.593 146.143L111.588 146.125C111.402 145.394 111.024 144.855 110.517 144.48C110.018 144.113 109.423 143.925 108.825 143.838C107.642 143.665 106.314 143.87 105.381 144.018C104.526 144.153 103.808 144.295 103.217 144.427C104.584 143.19 106.138 141.556 106.261 139.397L106.262 139.398C106.299 138.86 106.202 138.322 105.978 137.831C105.753 137.34 105.409 136.913 104.978 136.589L104.959 136.575L104.938 136.562L104.705 136.431C103.531 135.822 102.251 135.954 101.062 136.358C99.8 136.789 98.5535 137.557 97.502 138.219H97.501C95.9718 139.183 94.5376 140.28 93.1289 141.369L91.6465 136.894C95.6838 136.572 102.8 135.957 109.676 134.796C113.301 134.184 116.873 133.418 119.897 132.459C122.454 131.649 124.67 130.683 126.192 129.524C126.194 129.526 126.195 129.527 126.196 129.528Z" fill="#FFE100" stroke="black"/>
<path d="M125.232 205.647C125.506 206.196 126.328 205.714 126.055 205.166L119.243 191.49C118.97 190.94 118.147 191.423 118.421 191.971L125.232 205.647Z" fill="#009D78"/>
<path d="M81.4743 195.878C81.4254 195.8 81.3547 195.737 81.2708 195.697C81.187 195.657 81.0934 195.642 81.0014 195.655C80.9093 195.667 80.8228 195.705 80.752 195.765C80.6812 195.825 80.6293 195.904 80.6024 195.993C79.728 198.716 77.6036 204.895 77.4738 205.279C77.2785 205.863 78.1983 206.112 78.3936 205.531C79.3071 202.821 81.1656 197.283 81.1656 197.283C82.3425 199.369 85.4685 204.954 85.8818 205.646C85.9134 205.7 85.9553 205.747 86.0052 205.785C86.0551 205.823 86.1119 205.851 86.1725 205.866C86.233 205.882 86.2961 205.886 86.3581 205.878C86.4201 205.869 86.4798 205.848 86.5339 205.817C86.5879 205.785 86.6352 205.743 86.673 205.693C86.7108 205.643 86.7384 205.587 86.7543 205.526C86.7701 205.466 86.7739 205.402 86.7654 205.34C86.7568 205.278 86.7362 205.219 86.7046 205.165C84.9805 202.058 83.237 198.963 81.4743 195.878Z" fill="#009D78"/>
<path d="M156.94 120.915C156.164 113.909 153.315 107.294 148.756 101.918C144.321 96.2467 137.977 92.3791 130.904 91.0338C120.698 88.8288 109.564 91.4937 99.4584 94.7811C99.292 94.8352 96.5352 95.7324 96.3184 95.8495C93.2703 94.5428 90.1261 93.4725 86.9138 92.6479C86.339 92.511 85.7415 92.4992 85.1617 92.6133C84.5819 92.7274 84.0334 92.9648 83.5534 93.3094C83.0715 93.7989 82.7581 94.4293 82.6589 95.1091C82.5597 95.7888 82.6797 96.4825 83.0015 97.0894C83.8136 98.4472 85.055 99.4957 86.5295 100.069C88.3301 100.918 90.199 101.614 92.1163 102.148C89.5018 103.242 86.9773 104.54 84.5664 106.03C83.7356 106.494 82.9794 107.08 82.3236 107.769C80.2925 109.993 81.3333 113.236 84.1141 113.122C86.9712 112.986 89.7747 112.295 92.3683 111.089C91.659 113.54 90.7568 118.247 91.4347 120.735C92.1252 123.268 94.8102 124.137 96.5024 122.553C99.0778 120.418 97.8342 115.371 101.885 110.556C103.082 113.716 103.174 116.782 105.624 117.941C106.241 118.293 106.966 118.406 107.662 118.262C108.358 118.117 108.977 117.723 109.404 117.154C110.419 115.768 109.969 113.956 109.656 112.401C109.36 110.923 109.066 109.445 108.774 107.966C112.713 107.716 116.66 108.302 120.357 109.684C122.406 110.439 124.27 111.625 125.821 113.162C127.163 114.582 128.159 116.292 128.733 118.159C129.307 120.026 129.444 122 129.133 123.929C128.767 125.686 127.878 127.292 126.582 128.534C126.495 128.624 126.446 128.745 126.446 128.871C126.446 128.997 126.495 129.118 126.582 129.208C126.582 129.208 143.063 149.296 143.765 150.153C143.856 150.24 143.976 150.288 144.102 150.288C144.228 150.288 144.348 150.24 144.439 150.153C148.825 146.734 152.272 142.258 154.458 137.145C156.644 132.032 157.498 126.448 156.94 120.915ZM99.2177 107.753L96.8048 108.686C96.2315 108.908 95.9858 107.986 96.5528 107.767L98.9657 106.833C99.539 106.611 99.7834 107.534 99.2177 107.753ZM99.413 101.957L96.5818 102.292C95.9719 102.364 95.9795 101.41 96.5818 101.338L99.413 101.002C100.023 100.926 100.015 101.884 99.413 101.956V101.957ZM102.397 110.033C102.306 110.114 102.187 110.157 102.066 110.153C101.944 110.149 101.828 110.1 101.742 110.014C101.656 109.927 101.606 109.812 101.603 109.69C101.599 109.569 101.642 109.45 101.723 109.359C103.449 107.569 105.718 107.217 108.203 107.043C108.815 107.002 108.809 107.944 108.203 107.997C105.831 108.201 104.103 108.387 102.397 110.032V110.033ZM151.998 125.909V120.915C151.998 120.788 152.048 120.667 152.137 120.578C152.227 120.489 152.348 120.438 152.474 120.438C152.6 120.438 152.722 120.489 152.811 120.578C152.9 120.667 152.95 120.788 152.95 120.915C152.979 122.579 152.983 124.244 152.95 125.907C152.949 125.97 152.934 126.031 152.909 126.089C152.883 126.146 152.846 126.197 152.8 126.24C152.754 126.283 152.7 126.316 152.641 126.338C152.582 126.36 152.519 126.369 152.456 126.367C152.336 126.362 152.222 126.312 152.137 126.226C152.052 126.141 152.002 126.027 151.998 125.907V125.909Z" fill="#F9EFDD"/>
<path d="M163.602 131.887C163.576 132.006 163.597 132.131 163.66 132.235C163.724 132.34 163.825 132.416 163.943 132.448C164.06 132.481 164.186 132.467 164.294 132.409C164.402 132.351 164.483 132.255 164.522 132.139C166.33 125.563 165.925 118.576 163.369 112.253C163.142 111.69 162.221 111.936 162.449 112.505C164.362 117.277 165.048 122.451 164.446 127.556C164.261 129.017 163.979 130.463 163.602 131.887Z" fill="black"/>
<path d="M168.252 131.625C168.108 132.221 169.028 132.475 169.172 131.877C170.774 125.233 170.262 118.254 167.706 111.916C167.479 111.354 166.557 111.6 166.788 112.168C169.295 118.342 169.807 125.145 168.252 131.625Z" fill="black"/>
<path d="M42.1343 77.6328C41.6731 77.2322 41.0003 77.9037 41.4602 78.3069L56.4831 91.3769C56.9443 91.7776 57.6171 91.106 57.1572 90.7028L42.1343 77.6328Z" fill="black"/>
<path d="M152.954 125.907C152.983 124.244 152.983 122.58 152.954 120.915C152.954 120.788 152.903 120.667 152.814 120.578C152.725 120.489 152.604 120.438 152.477 120.438C152.351 120.438 152.23 120.489 152.14 120.578C152.051 120.667 152.001 120.788 152.001 120.915V125.907C152.006 126.033 152.061 126.153 152.154 126.239C152.246 126.325 152.37 126.371 152.496 126.367C152.617 126.363 152.731 126.314 152.817 126.228C152.902 126.142 152.951 126.028 152.954 125.907Z" fill="#FC2636"/>
<path d="M34.8495 94.6323C34.7273 94.6386 34.6121 94.6916 34.5278 94.7803C34.4435 94.8691 34.3965 94.9868 34.3965 95.1092C34.3965 95.2316 34.4435 95.3494 34.5278 95.4381C34.6121 95.5269 34.7273 95.5799 34.8495 95.5861H56.3753C56.4976 95.5799 56.6127 95.5269 56.6971 95.4381C56.7814 95.3494 56.8284 95.2316 56.8284 95.1092C56.8284 94.9868 56.7814 94.8691 56.6971 94.7803C56.6127 94.6916 56.4976 94.6386 56.3753 94.6323H34.8495Z" fill="black"/>
<path d="M56.6146 100.538C57.1186 100.198 56.6448 99.3727 56.1332 99.7155L41.5563 109.503C41.0523 109.843 41.5261 110.67 42.0376 110.326L56.6146 100.538Z" fill="black"/>
<path d="M43.8714 160.002C46.147 165.771 50.8896 169.397 55.9788 173.085C58.0149 174.56 60.0864 175.986 62.1931 177.362C62.0857 177.296 62.0078 177.192 61.9758 177.07C61.9439 176.948 61.9603 176.819 62.0217 176.709L62.2863 176.282C58.9423 174.091 55.6335 171.796 52.5226 169.285C47.6351 165.34 43.4078 160.272 43.8702 154C43.9155 153.393 42.9882 153.393 42.9214 153.986C42.8876 154.405 42.8775 154.826 42.8912 155.246C42.9417 156.876 43.2733 158.485 43.8714 160.002Z" fill="#FC2636"/>
<path d="M65.0918 152.793C68.1998 154.08 71.2658 155.458 74.2898 156.927L74.5644 156.483C74.6303 156.377 74.7348 156.299 74.8561 156.268C74.9774 156.236 75.1062 156.252 75.2159 156.313C71.9726 154.731 68.6828 153.252 65.3463 151.874C64.778 151.64 64.5311 152.562 65.0918 152.793Z" fill="#FC2636"/>
<path d="M98.9648 106.833L96.5519 107.767C95.9862 107.986 96.2319 108.908 96.8039 108.686L99.2168 107.753C99.7838 107.534 99.5394 106.611 98.9648 106.833Z" fill="#FC2636"/>
<path d="M96.583 102.291L99.4142 101.956C100.016 101.884 100.024 100.93 99.4142 101.002L96.583 101.337C95.9807 101.409 95.9731 102.363 96.583 102.291Z" fill="#FC2636"/>
<path d="M101.723 109.358C101.642 109.449 101.6 109.567 101.603 109.689C101.607 109.81 101.657 109.926 101.743 110.012C101.829 110.098 101.944 110.148 102.066 110.152C102.188 110.155 102.306 110.112 102.397 110.032C104.078 108.411 105.716 108.211 108.203 107.996C108.809 107.943 108.816 107 108.203 107.042C105.713 107.211 103.445 107.567 101.723 109.358Z" fill="#FC2636"/>
<path d="M111.107 146.248C110.477 143.756 107.351 144.211 105.462 144.511C100.14 145.358 100.27 146.393 102.699 144.226C104.122 142.958 105.653 141.396 105.766 139.364C105.798 138.909 105.715 138.453 105.526 138.038C105.336 137.623 105.046 137.262 104.681 136.989C103.993 136.576 103.182 136.42 102.39 136.549C99.4924 136.987 95.2185 140.389 92.8799 142.197L90.0852 133.755C89.8674 132.859 89.4966 132.006 88.989 131.235C88.7571 130.898 88.4521 130.616 88.0965 130.413C87.7409 130.209 87.344 130.088 86.9352 130.059C85.1158 130.059 84.3295 131.969 84.4618 133.747C84.453 136.432 84.5815 140.079 84.8096 143.338C84.2287 143.032 83.6328 142.744 83.0557 142.448C82.7035 142.193 82.2983 142.019 81.8702 141.942C81.442 141.864 81.0018 141.884 80.5823 142C80.2375 142.177 79.9345 142.426 79.6937 142.73C79.4528 143.034 79.2795 143.386 79.1854 143.762C79.0913 144.138 79.0786 144.53 79.148 144.912C79.2175 145.294 79.3675 145.656 79.5882 145.975C80.7146 147.933 83.5609 148.8 84.23 150.619C84.2174 151.956 82.1485 156.996 81.3093 159.439C79.2933 158.358 77.2408 157.364 75.2147 156.311C75.1049 156.251 74.9763 156.235 74.8553 156.267C74.7342 156.298 74.6298 156.375 74.5633 156.481L62.0225 176.706C61.962 176.816 61.9461 176.945 61.978 177.067C62.0099 177.188 62.0871 177.293 62.1939 177.359C66.9164 180.452 71.8805 183.158 77.0379 185.453C80.31 186.924 83.8095 187.824 87.385 188.116C90.8526 188.324 92.677 185.722 94.2029 182.543C95.8709 178.787 97.1494 174.869 98.0182 170.852C99.4432 165.065 100.638 158.899 101.871 152.605C106.231 150.767 111.709 149.596 111.107 146.248ZM95.2437 150.811C94.7397 151.167 94.2697 150.343 94.7623 149.987C95.2755 149.613 95.694 149.124 95.9845 148.559C96.268 148.014 97.0946 148.499 96.8073 149.04C96.4307 149.744 95.8953 150.35 95.2437 150.811ZM89.9517 148.264C90.1398 147.534 90.341 146.806 90.5552 146.082C90.5899 145.962 90.6706 145.86 90.7798 145.799C90.8891 145.737 91.0181 145.721 91.1389 145.755C91.2597 145.788 91.3625 145.867 91.4252 145.976C91.4879 146.084 91.5053 146.213 91.4737 146.334C91.2856 147.065 91.0844 147.792 90.8702 148.516C90.8355 148.637 90.7548 148.739 90.6456 148.8C90.5363 148.861 90.4073 148.877 90.2866 148.844C90.1658 148.811 90.0629 148.731 90.0002 148.623C89.9375 148.514 89.9201 148.386 89.9517 148.264ZM89.173 184.241C88.0503 184.583 86.9226 184.905 85.7974 185.237C85.678 185.262 85.5532 185.242 85.4487 185.178C85.3442 185.115 85.268 185.014 85.2357 184.896C85.2034 184.778 85.2175 184.652 85.2751 184.545C85.3328 184.437 85.4295 184.355 85.5454 184.317C86.6681 183.975 87.7958 183.654 88.921 183.321C89.0404 183.295 89.1652 183.316 89.2697 183.38C89.3742 183.443 89.4505 183.544 89.4828 183.662C89.5151 183.78 89.5009 183.905 89.4433 184.013C89.3857 184.121 89.2889 184.203 89.173 184.241Z" fill="#F9EFDD"/>
<path d="M185.06 49.3447C212.845 41.0329 239.391 56.6747 243.982 81.167V81.1689C245.352 88.413 244.524 95.901 241.605 102.671C238.955 108.784 234.471 113.838 229.683 118.336C227.29 120.584 224.842 122.675 222.517 124.692C220.211 126.694 218.02 128.628 216.178 130.537C214.023 132.647 212.492 135.311 211.756 138.236L211.747 138.275L211.74 138.315C211.604 139.13 211.534 139.953 211.529 140.778H185.059C184.699 134.838 186.63 126.719 191.616 119.341C195.384 113.841 199.984 108.96 205.249 104.87L205.253 104.866C207.43 103.154 210.011 101.158 212.275 98.9707C214.39 96.9277 216.307 94.6464 217.366 92.1768L217.566 91.6807C219.821 85.7083 216.403 79.6268 211.307 76.7031H211.308C198.406 69.3013 180.103 74.6237 175.909 91.6094H150.048C149.715 89.7482 149.72 87.8418 150.065 85.9824L150.145 85.582C153.945 67.7025 167.969 54.456 185.06 49.3447Z" fill="#009D78" stroke="black" stroke-width="2"/>
<path d="M217.881 196.747V196.743C217.881 196.74 217.882 196.735 217.882 196.729L217.881 196.747ZM217.996 157C218.001 159.514 217.999 168.05 217.996 176.56C217.993 185.049 217.991 193.513 217.995 195.911C217.439 195.937 216.456 195.962 214.73 195.979C210.072 196.022 200.146 196.008 179 195.858V157H217.996Z" fill="#009D78" stroke="black" stroke-width="2"/>
<path d="M6.40038 159.595C6.38778 159.632 6.31596 159.517 6.23658 160.423C6.0375 162.706 5.79558 171.463 6.37896 205.405C6.38524 205.527 6.43823 205.642 6.52698 205.727C6.61573 205.811 6.73346 205.858 6.85587 205.858C6.97827 205.858 7.09601 205.811 7.18475 205.727C7.2735 205.642 7.32649 205.527 7.33278 205.405V160.656C6.51378 159.833 6.4344 159.806 6.40038 159.595Z" fill="black"/>
<path d="M18.1755 148.962C18.1742 148.899 18.1603 148.836 18.1346 148.778C18.1089 148.72 18.072 148.668 18.0259 148.624C17.9798 148.581 17.9256 148.547 17.8662 148.524C17.8069 148.502 17.7437 148.491 17.6803 148.494C17.3514 148.502 17.9222 148.082 6.51795 159.165C6.43472 159.257 6.38867 159.377 6.38867 159.502C6.38867 159.626 6.43472 159.746 6.51795 159.839C17.4598 170.838 17.296 170.707 17.4245 170.793C17.4907 170.85 17.5713 170.888 17.6575 170.901C17.7436 170.915 17.832 170.905 17.9126 170.871C17.9932 170.838 18.0629 170.783 18.114 170.712C18.1651 170.641 18.1955 170.558 18.2019 170.471C18.2196 170.389 18.1767 149.043 18.1755 148.962Z" fill="#FC2636"/>
<path d="M47.0815 125.686C47.188 125.62 47.2651 125.515 47.2969 125.394C47.3288 125.273 47.313 125.144 47.2528 125.034C47.1889 124.925 47.0843 124.845 46.962 124.813C46.8396 124.781 46.7095 124.799 46.6002 124.862C37.2426 132.071 28.155 139.412 19.3375 146.883C18.8676 147.28 19.5454 147.952 20.0116 147.557C28.8711 140.055 37.8944 132.764 47.0815 125.686Z" fill="#FFF0B3"/>
<path d="M35.1235 188.588C35.538 189.042 36.2108 188.367 35.7976 187.914C29.3879 180.877 22.4239 173.759 20.7355 172.126C20.6444 172.046 20.526 172.003 20.4045 172.007C20.2829 172.01 20.1673 172.06 20.0813 172.146C19.9953 172.232 19.9453 172.348 19.9416 172.469C19.9379 172.591 19.9808 172.709 20.0614 172.8C25.9935 178.938 28.7894 181.633 35.1235 188.588Z" fill="#FFF0B3"/>
<path d="M102.397 81.4822C111.261 73.976 120.284 66.6856 129.467 59.6111C129.574 59.5452 129.651 59.4406 129.683 59.3191C129.715 59.1976 129.699 59.0684 129.638 58.9584C129.607 58.9044 129.565 58.8571 129.515 58.8193C129.465 58.7814 129.409 58.7538 129.348 58.7378C129.288 58.7219 129.224 58.7181 129.163 58.7265C129.101 58.735 129.041 58.7556 128.987 58.7871C119.609 66.0111 110.521 73.3514 101.723 80.8081C101.254 81.205 101.933 81.8766 102.397 81.4822Z" fill="#FFF0B3"/>
<path d="M89.947 148.264C89.9154 148.386 89.9329 148.514 89.9956 148.623C90.0582 148.731 90.1611 148.811 90.2819 148.844C90.4027 148.877 90.5317 148.861 90.6409 148.8C90.7502 148.739 90.8309 148.637 90.8656 148.516C91.0798 147.793 91.2809 147.066 91.4691 146.334C91.5007 146.213 91.4832 146.084 91.4206 145.976C91.3579 145.867 91.255 145.788 91.1342 145.755C91.0134 145.722 90.8845 145.737 90.7752 145.799C90.666 145.86 90.5853 145.962 90.5506 146.082C90.3364 146.806 90.1352 147.534 89.947 148.264Z" fill="#FC2636"/>
<path d="M95.2443 150.811C95.896 150.351 96.4314 149.744 96.808 149.041C97.0953 148.499 96.2687 148.014 95.9852 148.56C95.6947 149.124 95.2762 149.613 94.763 149.987C94.2704 150.344 94.7441 151.168 95.2443 150.811Z" fill="#FC2636"/>
<path d="M85.7921 185.237C86.9173 184.905 88.045 184.583 89.1677 184.241C89.2836 184.203 89.3804 184.121 89.438 184.013C89.4956 183.906 89.5097 183.78 89.4775 183.662C89.4452 183.544 89.3689 183.443 89.2644 183.38C89.1599 183.316 89.0351 183.295 88.9157 183.321C87.7905 183.654 86.6628 183.975 85.5401 184.317C85.4242 184.355 85.3274 184.437 85.2698 184.545C85.2122 184.652 85.1981 184.778 85.2304 184.896C85.2626 185.014 85.3389 185.115 85.4434 185.178C85.5479 185.242 85.6727 185.263 85.7921 185.237Z" fill="#FC2636"/>
<path d="M94.1441 126.65C94.1242 126.037 93.9035 125.448 93.516 124.972C93.1285 124.497 92.5956 124.162 91.9992 124.019C91.4028 123.876 90.7759 123.932 90.2149 124.18C89.6538 124.428 89.1896 124.853 88.8937 125.39C88.6831 125.768 88.5628 126.19 88.5422 126.622C88.5217 127.054 88.6014 127.485 88.7752 127.881C88.9491 128.277 89.2122 128.628 89.5441 128.906C89.876 129.183 90.2676 129.38 90.6884 129.481C91.1091 129.582 91.5474 129.584 91.9691 129.487C92.3908 129.391 92.7844 129.198 93.1191 128.924C93.4538 128.649 93.7205 128.302 93.8983 127.907C94.0762 127.513 94.1603 127.082 94.1441 126.65ZM89.6598 126.43V126.416C89.7762 126.009 90.0257 125.653 90.3684 125.405C90.7111 125.157 91.127 125.031 91.5498 125.047C91.9963 125.132 92.3954 125.38 92.6693 125.742C92.9432 126.105 93.0723 126.557 93.0315 127.009C92.9399 127.439 92.6952 127.82 92.343 128.082C91.9908 128.345 91.5553 128.47 91.1176 128.434C90.8902 128.398 90.6722 128.318 90.4759 128.198C90.2796 128.078 90.1089 127.92 89.9735 127.734C89.8381 127.548 89.7407 127.337 89.6869 127.113C89.6331 126.889 89.6238 126.657 89.6598 126.43Z" fill="black"/>
<path d="M38.7889 205.554L43.839 191.878C44.091 191.205 43.0124 190.915 42.7667 191.583L37.7166 205.254C37.4684 205.931 38.5432 206.221 38.7889 205.554Z" fill="black"/>
<path d="M118.352 192.012L125.164 205.686C125.483 206.328 126.442 205.765 126.125 205.126L119.313 191.45C118.994 190.81 118.034 191.372 118.352 192.012Z" fill="black"/>
<path d="M85.8197 205.687C85.8565 205.75 85.9054 205.805 85.9635 205.849C86.0217 205.893 86.0879 205.925 86.1585 205.944C86.2291 205.963 86.3027 205.967 86.375 205.957C86.4474 205.947 86.5171 205.923 86.5801 205.886C86.6431 205.85 86.6983 205.801 86.7425 205.743C86.7866 205.684 86.8189 205.618 86.8374 205.548C86.856 205.477 86.8604 205.403 86.8506 205.331C86.8407 205.259 86.8166 205.189 86.7798 205.126C83.2216 198.676 82.0636 196.618 81.7134 196.029C81.3769 195.463 80.7759 195.374 80.5252 196.005C80.2744 196.636 79.6293 198.636 77.3991 205.258C77.1698 205.939 78.2433 206.23 78.4714 205.554L81.1917 197.479C82.3383 199.514 85.4077 205.002 85.8197 205.687Z" fill="black"/>
<mask id="path-35-inside-1_69_1550" fill="white">
<path d="M154.549 111.258C151.772 104.664 147.141 99.0171 141.218 95.0039C127.447 86.79 112.167 90.3558 96.9579 95.5294C96.736 95.5845 96.5202 95.6622 96.3141 95.7612C96.1704 95.7032 95.0289 95.3013 93.4312 94.6511C91.3322 93.7709 89.1606 93.0748 86.9409 92.5709C86.3529 92.4271 85.7404 92.4137 85.1466 92.5316C84.5528 92.6496 83.9921 92.8961 83.5036 93.2538C83.0088 93.7561 82.6872 94.4034 82.5859 95.1012C82.4846 95.7991 82.6088 96.511 82.9404 97.1333C83.7643 98.5002 85.0158 99.5573 86.5012 100.141C88.2369 100.961 90.0377 101.635 91.8852 102.157C89.3417 103.239 86.884 104.512 84.5331 105.966C83.6975 106.432 82.9375 107.022 82.2789 107.716C80.1886 110.004 81.2848 113.319 84.1248 113.205C86.9352 113.078 89.6949 112.411 92.2531 111.24C91.4369 113.996 91.0735 116.867 91.177 119.739C88.4529 120.548 85.3672 122.323 84.1752 124.851C84.0908 125.032 84.0064 125.443 83.8275 125.529C83.6485 125.614 83.1735 125.475 82.977 125.463C78.3452 125.195 75.1498 128.751 75.8239 132.645C74.6352 132.971 73.587 133.68 72.8415 134.661C72.1661 135.511 71.6535 136.478 71.3295 137.514C69.1406 137.599 66.958 137.803 64.7914 138.126C61.0167 138.506 57.3109 139.397 53.7752 140.772C47.009 143.523 43.0375 149.323 42.8434 153.982C42.8031 154.127 43.0224 164.053 42.8434 190.251C42.8434 190.872 43.5478 190.853 43.6763 190.865C46.2656 191.075 58.785 191.228 118.477 190.807C118.624 190.805 118.765 190.746 118.869 190.642C118.972 190.538 119.031 190.398 119.033 190.251C119.033 182.129 119.329 161.798 119.333 159.752C128.431 158.305 137.293 155.837 144.498 150.208C150.23 145.73 154.324 139.484 156.141 132.441C157.959 125.397 157.399 117.951 154.549 111.258ZM76.5245 133.686C76.5982 133.686 76.6712 133.671 76.7391 133.642C76.807 133.613 76.8686 133.571 76.9203 133.519C76.9719 133.466 77.0127 133.404 77.0401 133.336C77.0675 133.267 77.0812 133.194 77.0802 133.12C76.8516 132.391 76.7942 131.619 76.9124 130.864C77.0306 130.109 77.3213 129.391 77.7618 128.767C78.3709 128.003 79.1605 127.402 80.0594 127.019C80.9584 126.636 81.9385 126.483 82.9114 126.573C83.3131 126.644 83.7231 126.652 84.1273 126.598C84.9111 126.391 85.032 125.487 85.4151 124.887C86.8989 122.91 89.0025 121.487 91.39 120.845C92.112 123.225 94.6118 124.276 96.4867 122.696C98.2342 126.787 99.0994 131.2 99.0256 135.648C95.7924 135.988 92.97 136.213 91.0321 136.363L90.1627 133.739C89.9415 132.837 89.5683 131.98 89.059 131.204C88.8205 130.854 88.5061 130.564 88.1393 130.353C87.7725 130.142 87.3628 130.018 86.9409 129.988C85.0686 129.988 84.2559 131.94 84.3882 133.754C84.3882 134.777 84.402 135.8 84.4247 136.822C82.4591 136.948 74.5211 137.35 72.5202 137.452C73.1225 135.742 74.7542 133.672 76.5245 133.686ZM105.589 118.013C106.224 118.373 106.969 118.489 107.684 118.339C108.399 118.189 109.034 117.783 109.471 117.198C110.498 115.786 110.049 113.961 109.734 112.384C109.445 110.938 109.157 109.491 108.872 108.044C112.773 107.808 116.679 108.395 120.338 109.765C122.446 110.453 124.34 111.673 125.839 113.306C127.338 114.939 128.391 116.931 128.896 119.089C130.401 125.487 126.628 128.296 126.461 128.573C126.481 128.541 126.504 128.512 126.53 128.485C122.483 132.41 109.821 134.462 100.167 135.527C100.22 130.802 99.2395 126.123 97.2956 121.817C98.8882 119.571 98.3036 115.044 101.863 110.712C103.025 113.836 103.132 116.85 105.589 118.013ZM102.716 109.856C103.338 109.29 104.076 108.865 104.878 108.612C105.818 108.347 106.783 108.181 107.757 108.117L108.477 111.739C108.909 113.043 109.054 114.425 108.9 115.79C108.846 116.087 108.72 116.366 108.533 116.603C108.346 116.84 108.104 117.028 107.828 117.15C107.552 117.272 107.25 117.324 106.949 117.303C106.648 117.282 106.357 117.187 106.1 117.027C105.538 116.671 105.059 116.198 104.693 115.642C104.328 115.085 104.085 114.457 103.981 113.799C103.636 112.461 103.214 111.145 102.716 109.856ZM98.5216 147.455C101.581 146.265 104.799 145.53 108.072 145.275C108.455 145.157 108.867 145.187 109.228 145.36C109.589 145.533 109.872 145.835 110.02 146.207C110.167 146.579 110.17 146.992 110.026 147.366C109.882 147.739 109.603 148.045 109.244 148.221C108.609 148.701 107.915 149.096 107.178 149.397C100.248 152.321 101.084 151.269 100.752 152.946C99.076 161.48 96.7803 173.988 93.6328 181.319C92.781 183.413 91.0183 186.479 88.7402 187.013C87.0858 187.397 83.4318 186.576 81.5582 185.999C75.0944 184.046 68.8637 180.438 63.1924 176.777L75.1763 157.448C77.2351 158.461 79.2742 159.511 81.2936 160.598C81.3675 160.64 81.4498 160.664 81.5343 160.669C81.6189 160.675 81.7036 160.661 81.7821 160.629C81.8606 160.597 81.9308 160.548 81.9876 160.485C82.0444 160.422 82.0863 160.347 82.1101 160.266C83.2617 156.763 84.4776 154.481 85.2601 150.942C85.5209 149.575 83.4205 148.013 82.2701 147.225C81.1928 146.486 79.4981 145.011 80.3637 143.51C80.4468 143.36 80.56 143.229 80.6962 143.125C80.8323 143.021 80.9886 142.946 81.155 142.905C81.598 142.896 82.0323 143.029 82.3948 143.283C83.2768 143.734 84.2067 144.157 85.056 144.663C85.1406 144.711 85.2364 144.737 85.3339 144.737C85.4313 144.736 85.5271 144.711 85.6116 144.662C85.6962 144.614 85.7665 144.544 85.8158 144.46C85.8651 144.376 85.8916 144.28 85.8926 144.183C85.6645 141.167 85.3886 135.132 85.5222 132.917C85.5153 132.566 85.6022 132.218 85.7741 131.911C85.9459 131.605 86.1965 131.349 86.4999 131.171C87.1816 130.896 87.8973 131.449 88.2513 131.99C88.7553 132.886 88.4252 132.023 92.0994 143.136C92.2002 143.437 92.6147 143.7 92.9171 143.467C95.1725 141.735 98.5317 139.008 101.475 137.839C102.749 137.382 104.619 137.335 104.728 139.099C104.914 142.042 100.165 144.792 97.9785 146.533C97.5526 146.867 98.0163 147.652 98.5216 147.455ZM43.9522 154.728C43.9522 150.106 47.0909 146.074 50.8029 143.61C53.8916 141.698 57.3296 140.419 60.9169 139.847C68.2841 138.429 71.1128 138.761 84.4587 137.927C84.5125 139.691 84.6003 141.451 84.7221 143.206C84.1815 142.927 83.6309 142.661 83.0967 142.386C82.735 142.126 82.3196 141.949 81.8809 141.87C81.4422 141.791 80.9913 141.812 80.5615 141.93C80.2047 142.111 79.8908 142.366 79.6407 142.678C79.3906 142.99 79.2102 143.352 79.1116 143.74C79.013 144.128 78.9986 144.532 79.0691 144.926C79.1397 145.319 79.2937 145.693 79.5208 146.023C80.6838 148.046 84.4814 149.418 84.1122 151C83.5036 153.646 82.2222 156.568 81.2659 159.328C76.0978 156.549 70.7914 154.036 65.3672 151.797C65.225 151.759 65.0735 151.778 64.9454 151.851C64.8173 151.923 64.723 152.044 64.683 152.185C64.647 152.327 64.6672 152.478 64.7396 152.605C64.8119 152.733 64.9307 152.827 65.0711 152.869C68.1455 154.142 71.18 155.506 74.1746 156.961L62.2638 176.171C58.9475 173.996 55.6665 171.72 52.5807 169.229C42.7237 161.271 44.082 155.063 43.9522 154.728ZM118.634 158.751C118.517 158.784 118.413 158.853 118.339 158.95C118.266 159.047 118.226 159.165 118.225 159.287C118.225 167.409 117.929 187.682 117.927 189.698H43.9648V160.409C46.3374 166.033 50.9641 169.539 55.9512 173.153C63.859 178.886 77.5804 187.751 87.397 188.199C90.8368 188.451 92.7974 185.687 94.2829 182.585C95.9539 178.823 97.2353 174.899 98.107 170.876C99.5384 165.065 100.718 158.958 101.953 152.664C106.46 150.765 111.805 149.616 111.196 146.227C111.055 145.741 110.784 145.303 110.411 144.96C110.039 144.618 109.579 144.385 109.083 144.286C107.876 144.083 106.639 144.134 105.453 144.435C100.65 145.2 100.868 145.997 102.768 144.283C104.2 142.991 105.745 141.42 105.857 139.369C105.889 138.9 105.803 138.43 105.607 138.003C105.411 137.576 105.11 137.205 104.733 136.924C102.591 135.612 99.8887 137.227 97.7429 138.577C96.0646 139.636 94.5009 140.859 92.9322 142.071L91.4026 137.452C99.6329 136.803 120.612 134.977 126.869 129.672L143.315 149.718C136.097 155.071 127.439 157.38 118.634 158.751ZM127.657 128.889C128.734 127.757 129.527 126.385 129.971 124.887C130.415 123.388 130.498 121.806 130.212 120.269C129.219 112.396 123.005 108.473 115.254 107.274C111.681 106.659 108.022 106.758 104.488 107.565C101.786 108.384 99.6997 111.291 98.7383 113.812C96.8092 118.978 97.5514 119.815 96.0558 121.587C95.7931 121.904 95.44 122.132 95.0439 122.242C94.6477 122.352 94.2275 122.338 93.8394 122.202C92.0502 121.429 92.1573 119.035 92.2707 117.434C92.4471 115.027 92.9159 112.649 93.6668 110.355C93.6931 110.248 93.688 110.137 93.652 110.034C93.6161 109.93 93.5508 109.84 93.4642 109.773C93.3776 109.706 93.2735 109.666 93.1645 109.657C93.0555 109.649 92.9463 109.672 92.8503 109.725C90.4963 110.927 87.9478 111.702 85.3231 112.014C84.5309 112.218 83.6927 112.141 82.9505 111.797C82.7332 111.56 82.5664 111.28 82.4601 110.976C82.3538 110.672 82.3104 110.35 82.3323 110.028C82.3542 109.707 82.441 109.394 82.5876 109.107C82.7341 108.82 82.9373 108.566 83.1849 108.36C83.7753 107.789 84.4343 107.294 85.1467 106.886C87.8628 105.19 90.7358 103.76 93.726 102.614C93.8401 102.578 93.9398 102.507 94.0106 102.411C94.0814 102.314 94.1196 102.198 94.1196 102.078C94.1196 101.959 94.0814 101.842 94.0106 101.746C93.9398 101.649 93.8401 101.578 93.726 101.542C92.1876 101.119 90.6743 100.607 89.1699 100.075C87.7009 99.5933 86.3162 98.8846 85.066 97.975C84.5043 97.6279 84.079 97.098 83.8618 96.4744C83.6445 95.8508 83.6484 95.1714 83.8728 94.5503C84.0572 94.2542 84.3142 94.01 84.6193 93.8409C84.9245 93.6717 85.2678 93.5833 85.6167 93.5839C85.9367 93.5556 86.2591 93.5695 86.5755 93.6255C90.8935 94.5277 94.2804 96.3169 96.1364 96.8675C96.5039 96.8768 96.8675 96.7899 97.191 96.6155C104.132 94.0579 111.348 92.3219 118.693 91.4432C125.539 90.6154 132.479 91.7975 138.665 94.8452C145.431 98.2661 150.699 105.028 153.589 111.809C156.28 118.192 156.817 125.279 155.12 131.995C153.423 138.712 149.583 144.693 144.183 149.031L127.657 128.889Z"/>
</mask>
<path d="M154.549 111.258C151.772 104.664 147.141 99.0171 141.218 95.0039C127.447 86.79 112.167 90.3558 96.9579 95.5294C96.736 95.5845 96.5202 95.6622 96.3141 95.7612C96.1704 95.7032 95.0289 95.3013 93.4312 94.6511C91.3322 93.7709 89.1606 93.0748 86.9409 92.5709C86.3529 92.4271 85.7404 92.4137 85.1466 92.5316C84.5528 92.6496 83.9921 92.8961 83.5036 93.2538C83.0088 93.7561 82.6872 94.4034 82.5859 95.1012C82.4846 95.7991 82.6088 96.511 82.9404 97.1333C83.7643 98.5002 85.0158 99.5573 86.5012 100.141C88.2369 100.961 90.0377 101.635 91.8852 102.157C89.3417 103.239 86.884 104.512 84.5331 105.966C83.6975 106.432 82.9375 107.022 82.2789 107.716C80.1886 110.004 81.2848 113.319 84.1248 113.205C86.9352 113.078 89.6949 112.411 92.2531 111.24C91.4369 113.996 91.0735 116.867 91.177 119.739C88.4529 120.548 85.3672 122.323 84.1752 124.851C84.0908 125.032 84.0064 125.443 83.8275 125.529C83.6485 125.614 83.1735 125.475 82.977 125.463C78.3452 125.195 75.1498 128.751 75.8239 132.645C74.6352 132.971 73.587 133.68 72.8415 134.661C72.1661 135.511 71.6535 136.478 71.3295 137.514C69.1406 137.599 66.958 137.803 64.7914 138.126C61.0167 138.506 57.3109 139.397 53.7752 140.772C47.009 143.523 43.0375 149.323 42.8434 153.982C42.8031 154.127 43.0224 164.053 42.8434 190.251C42.8434 190.872 43.5478 190.853 43.6763 190.865C46.2656 191.075 58.785 191.228 118.477 190.807C118.624 190.805 118.765 190.746 118.869 190.642C118.972 190.538 119.031 190.398 119.033 190.251C119.033 182.129 119.329 161.798 119.333 159.752C128.431 158.305 137.293 155.837 144.498 150.208C150.23 145.73 154.324 139.484 156.141 132.441C157.959 125.397 157.399 117.951 154.549 111.258ZM76.5245 133.686C76.5982 133.686 76.6712 133.671 76.7391 133.642C76.807 133.613 76.8686 133.571 76.9203 133.519C76.9719 133.466 77.0127 133.404 77.0401 133.336C77.0675 133.267 77.0812 133.194 77.0802 133.12C76.8516 132.391 76.7942 131.619 76.9124 130.864C77.0306 130.109 77.3213 129.391 77.7618 128.767C78.3709 128.003 79.1605 127.402 80.0594 127.019C80.9584 126.636 81.9385 126.483 82.9114 126.573C83.3131 126.644 83.7231 126.652 84.1273 126.598C84.9111 126.391 85.032 125.487 85.4151 124.887C86.8989 122.91 89.0025 121.487 91.39 120.845C92.112 123.225 94.6118 124.276 96.4867 122.696C98.2342 126.787 99.0994 131.2 99.0256 135.648C95.7924 135.988 92.97 136.213 91.0321 136.363L90.1627 133.739C89.9415 132.837 89.5683 131.98 89.059 131.204C88.8205 130.854 88.5061 130.564 88.1393 130.353C87.7725 130.142 87.3628 130.018 86.9409 129.988C85.0686 129.988 84.2559 131.94 84.3882 133.754C84.3882 134.777 84.402 135.8 84.4247 136.822C82.4591 136.948 74.5211 137.35 72.5202 137.452C73.1225 135.742 74.7542 133.672 76.5245 133.686ZM105.589 118.013C106.224 118.373 106.969 118.489 107.684 118.339C108.399 118.189 109.034 117.783 109.471 117.198C110.498 115.786 110.049 113.961 109.734 112.384C109.445 110.938 109.157 109.491 108.872 108.044C112.773 107.808 116.679 108.395 120.338 109.765C122.446 110.453 124.34 111.673 125.839 113.306C127.338 114.939 128.391 116.931 128.896 119.089C130.401 125.487 126.628 128.296 126.461 128.573C126.481 128.541 126.504 128.512 126.53 128.485C122.483 132.41 109.821 134.462 100.167 135.527C100.22 130.802 99.2395 126.123 97.2956 121.817C98.8882 119.571 98.3036 115.044 101.863 110.712C103.025 113.836 103.132 116.85 105.589 118.013ZM102.716 109.856C103.338 109.29 104.076 108.865 104.878 108.612C105.818 108.347 106.783 108.181 107.757 108.117L108.477 111.739C108.909 113.043 109.054 114.425 108.9 115.79C108.846 116.087 108.72 116.366 108.533 116.603C108.346 116.84 108.104 117.028 107.828 117.15C107.552 117.272 107.25 117.324 106.949 117.303C106.648 117.282 106.357 117.187 106.1 117.027C105.538 116.671 105.059 116.198 104.693 115.642C104.328 115.085 104.085 114.457 103.981 113.799C103.636 112.461 103.214 111.145 102.716 109.856ZM98.5216 147.455C101.581 146.265 104.799 145.53 108.072 145.275C108.455 145.157 108.867 145.187 109.228 145.36C109.589 145.533 109.872 145.835 110.02 146.207C110.167 146.579 110.17 146.992 110.026 147.366C109.882 147.739 109.603 148.045 109.244 148.221C108.609 148.701 107.915 149.096 107.178 149.397C100.248 152.321 101.084 151.269 100.752 152.946C99.076 161.48 96.7803 173.988 93.6328 181.319C92.781 183.413 91.0183 186.479 88.7402 187.013C87.0858 187.397 83.4318 186.576 81.5582 185.999C75.0944 184.046 68.8637 180.438 63.1924 176.777L75.1763 157.448C77.2351 158.461 79.2742 159.511 81.2936 160.598C81.3675 160.64 81.4498 160.664 81.5343 160.669C81.6189 160.675 81.7036 160.661 81.7821 160.629C81.8606 160.597 81.9308 160.548 81.9876 160.485C82.0444 160.422 82.0863 160.347 82.1101 160.266C83.2617 156.763 84.4776 154.481 85.2601 150.942C85.5209 149.575 83.4205 148.013 82.2701 147.225C81.1928 146.486 79.4981 145.011 80.3637 143.51C80.4468 143.36 80.56 143.229 80.6962 143.125C80.8323 143.021 80.9886 142.946 81.155 142.905C81.598 142.896 82.0323 143.029 82.3948 143.283C83.2768 143.734 84.2067 144.157 85.056 144.663C85.1406 144.711 85.2364 144.737 85.3339 144.737C85.4313 144.736 85.5271 144.711 85.6116 144.662C85.6962 144.614 85.7665 144.544 85.8158 144.46C85.8651 144.376 85.8916 144.28 85.8926 144.183C85.6645 141.167 85.3886 135.132 85.5222 132.917C85.5153 132.566 85.6022 132.218 85.7741 131.911C85.9459 131.605 86.1965 131.349 86.4999 131.171C87.1816 130.896 87.8973 131.449 88.2513 131.99C88.7553 132.886 88.4252 132.023 92.0994 143.136C92.2002 143.437 92.6147 143.7 92.9171 143.467C95.1725 141.735 98.5317 139.008 101.475 137.839C102.749 137.382 104.619 137.335 104.728 139.099C104.914 142.042 100.165 144.792 97.9785 146.533C97.5526 146.867 98.0163 147.652 98.5216 147.455ZM43.9522 154.728C43.9522 150.106 47.0909 146.074 50.8029 143.61C53.8916 141.698 57.3296 140.419 60.9169 139.847C68.2841 138.429 71.1128 138.761 84.4587 137.927C84.5125 139.691 84.6003 141.451 84.7221 143.206C84.1815 142.927 83.6309 142.661 83.0967 142.386C82.735 142.126 82.3196 141.949 81.8809 141.87C81.4422 141.791 80.9913 141.812 80.5615 141.93C80.2047 142.111 79.8908 142.366 79.6407 142.678C79.3906 142.99 79.2102 143.352 79.1116 143.74C79.013 144.128 78.9986 144.532 79.0691 144.926C79.1397 145.319 79.2937 145.693 79.5208 146.023C80.6838 148.046 84.4814 149.418 84.1122 151C83.5036 153.646 82.2222 156.568 81.2659 159.328C76.0978 156.549 70.7914 154.036 65.3672 151.797C65.225 151.759 65.0735 151.778 64.9454 151.851C64.8173 151.923 64.723 152.044 64.683 152.185C64.647 152.327 64.6672 152.478 64.7396 152.605C64.8119 152.733 64.9307 152.827 65.0711 152.869C68.1455 154.142 71.18 155.506 74.1746 156.961L62.2638 176.171C58.9475 173.996 55.6665 171.72 52.5807 169.229C42.7237 161.271 44.082 155.063 43.9522 154.728ZM118.634 158.751C118.517 158.784 118.413 158.853 118.339 158.95C118.266 159.047 118.226 159.165 118.225 159.287C118.225 167.409 117.929 187.682 117.927 189.698H43.9648V160.409C46.3374 166.033 50.9641 169.539 55.9512 173.153C63.859 178.886 77.5804 187.751 87.397 188.199C90.8368 188.451 92.7974 185.687 94.2829 182.585C95.9539 178.823 97.2353 174.899 98.107 170.876C99.5384 165.065 100.718 158.958 101.953 152.664C106.46 150.765 111.805 149.616 111.196 146.227C111.055 145.741 110.784 145.303 110.411 144.96C110.039 144.618 109.579 144.385 109.083 144.286C107.876 144.083 106.639 144.134 105.453 144.435C100.65 145.2 100.868 145.997 102.768 144.283C104.2 142.991 105.745 141.42 105.857 139.369C105.889 138.9 105.803 138.43 105.607 138.003C105.411 137.576 105.11 137.205 104.733 136.924C102.591 135.612 99.8887 137.227 97.7429 138.577C96.0646 139.636 94.5009 140.859 92.9322 142.071L91.4026 137.452C99.6329 136.803 120.612 134.977 126.869 129.672L143.315 149.718C136.097 155.071 127.439 157.38 118.634 158.751ZM127.657 128.889C128.734 127.757 129.527 126.385 129.971 124.887C130.415 123.388 130.498 121.806 130.212 120.269C129.219 112.396 123.005 108.473 115.254 107.274C111.681 106.659 108.022 106.758 104.488 107.565C101.786 108.384 99.6997 111.291 98.7383 113.812C96.8092 118.978 97.5514 119.815 96.0558 121.587C95.7931 121.904 95.44 122.132 95.0439 122.242C94.6477 122.352 94.2275 122.338 93.8394 122.202C92.0502 121.429 92.1573 119.035 92.2707 117.434C92.4471 115.027 92.9159 112.649 93.6668 110.355C93.6931 110.248 93.688 110.137 93.652 110.034C93.6161 109.93 93.5508 109.84 93.4642 109.773C93.3776 109.706 93.2735 109.666 93.1645 109.657C93.0555 109.649 92.9463 109.672 92.8503 109.725C90.4963 110.927 87.9478 111.702 85.3231 112.014C84.5309 112.218 83.6927 112.141 82.9505 111.797C82.7332 111.56 82.5664 111.28 82.4601 110.976C82.3538 110.672 82.3104 110.35 82.3323 110.028C82.3542 109.707 82.441 109.394 82.5876 109.107C82.7341 108.82 82.9373 108.566 83.1849 108.36C83.7753 107.789 84.4343 107.294 85.1467 106.886C87.8628 105.19 90.7358 103.76 93.726 102.614C93.8401 102.578 93.9398 102.507 94.0106 102.411C94.0814 102.314 94.1196 102.198 94.1196 102.078C94.1196 101.959 94.0814 101.842 94.0106 101.746C93.9398 101.649 93.8401 101.578 93.726 101.542C92.1876 101.119 90.6743 100.607 89.1699 100.075C87.7009 99.5933 86.3162 98.8846 85.066 97.975C84.5043 97.6279 84.079 97.098 83.8618 96.4744C83.6445 95.8508 83.6484 95.1714 83.8728 94.5503C84.0572 94.2542 84.3142 94.01 84.6193 93.8409C84.9245 93.6717 85.2678 93.5833 85.6167 93.5839C85.9367 93.5556 86.2591 93.5695 86.5755 93.6255C90.8935 94.5277 94.2804 96.3169 96.1364 96.8675C96.5039 96.8768 96.8675 96.7899 97.191 96.6155C104.132 94.0579 111.348 92.3219 118.693 91.4432C125.539 90.6154 132.479 91.7975 138.665 94.8452C145.431 98.2661 150.699 105.028 153.589 111.809C156.28 118.192 156.817 125.279 155.12 131.995C153.423 138.712 149.583 144.693 144.183 149.031L127.657 128.889Z" fill="black" stroke="black" stroke-width="4" mask="url(#path-35-inside-1_69_1550)"/>
<path d="M163.939 132.536C164.076 132.57 164.222 132.549 164.345 132.479C164.468 132.409 164.559 132.294 164.6 132.158C166.409 125.568 166.004 118.567 163.447 112.23C163.405 112.09 163.31 111.971 163.183 111.899C163.055 111.827 162.905 111.806 162.763 111.842C162.692 111.861 162.626 111.894 162.569 111.939C162.511 111.984 162.462 112.039 162.426 112.103C162.39 112.166 162.367 112.237 162.358 112.309C162.349 112.382 162.354 112.455 162.374 112.526C164.844 118.676 165.248 125.462 163.527 131.862C163.509 131.933 163.506 132.007 163.517 132.08C163.528 132.152 163.554 132.222 163.592 132.285C163.63 132.348 163.681 132.402 163.74 132.445C163.8 132.488 163.867 132.519 163.939 132.536Z" fill="black"/>
<path d="M167.1 111.51C166.958 111.55 166.837 111.644 166.764 111.772C166.692 111.9 166.673 112.052 166.712 112.195C169.211 118.355 169.724 125.142 168.177 131.607C168.01 132.303 169.082 132.599 169.251 131.903C170.854 125.245 170.342 118.252 167.784 111.898C167.742 111.758 167.647 111.64 167.52 111.567C167.392 111.495 167.242 111.475 167.1 111.51Z" fill="black"/>
<path d="M57.2152 90.6457L42.1922 77.5757C41.6542 77.1082 40.8642 77.8919 41.406 78.3632L56.429 91.4332C56.967 91.9006 57.757 91.1169 57.2152 90.6457Z" fill="black"/>
<path d="M152.498 126.445C152.639 126.44 152.772 126.381 152.872 126.282C152.971 126.182 153.029 126.048 153.034 125.907V120.915C153.028 120.767 152.964 120.628 152.856 120.527C152.748 120.427 152.604 120.373 152.456 120.378C152.315 120.382 152.181 120.44 152.081 120.54C151.981 120.64 151.924 120.774 151.92 120.915C151.892 122.579 151.892 124.243 151.92 125.907C151.922 125.981 151.938 126.053 151.968 126.12C151.999 126.187 152.042 126.247 152.096 126.298C152.15 126.348 152.213 126.387 152.282 126.412C152.351 126.437 152.425 126.449 152.498 126.445Z" fill="black"/>
<path d="M56.3766 94.5527H34.8508C34.7078 94.5595 34.5729 94.6211 34.4742 94.7247C34.3754 94.8283 34.3203 94.9659 34.3203 95.109C34.3203 95.2521 34.3754 95.3898 34.4742 95.4934C34.5729 95.5969 34.7078 95.6585 34.8508 95.6653H56.3766C56.5195 95.6585 56.6544 95.5969 56.7532 95.4934C56.8519 95.3898 56.907 95.2521 56.907 95.109C56.907 94.9659 56.8519 94.8283 56.7532 94.7247C56.6544 94.6211 56.5195 94.5595 56.3766 94.5527Z" fill="black"/>
<path d="M56.0942 99.6468L41.5172 109.435C40.9263 109.831 41.482 110.795 42.0792 110.395L56.6561 100.607C57.2471 100.21 56.6902 99.2462 56.0942 99.6468Z" fill="black"/>
<path d="M98.9458 106.756L96.5329 107.69C95.8726 107.942 96.1549 109.021 96.829 108.763L99.2419 107.828C99.9021 107.572 99.6148 106.496 98.9458 106.756Z" fill="black"/>
<path d="M99.416 100.926L96.5848 101.261C96.4383 101.265 96.2987 101.324 96.1949 101.428C96.0912 101.531 96.0314 101.671 96.0278 101.817C96.0277 101.89 96.042 101.963 96.0699 102.03C96.0978 102.098 96.1388 102.16 96.1906 102.211C96.2423 102.263 96.3038 102.304 96.3714 102.332C96.4391 102.36 96.5116 102.374 96.5848 102.374L99.416 102.035C99.5624 102.032 99.7018 101.972 99.8055 101.869C99.9091 101.765 99.9691 101.626 99.9729 101.479C99.9719 101.332 99.9128 101.192 99.8084 101.088C99.7041 100.984 99.563 100.926 99.416 100.926Z" fill="black"/>
<path d="M245.041 80.9615C240.253 55.3406 212.554 39.951 184.753 48.3098C167.422 53.4658 152.987 67.0259 149.095 85.3538C148.609 87.6379 148.605 89.9982 149.084 92.2838C149.116 92.4008 149.186 92.5039 149.283 92.5776C149.38 92.6512 149.498 92.6914 149.619 92.6921H176.324C176.445 92.6907 176.563 92.6502 176.659 92.5767C176.756 92.5032 176.827 92.4005 176.86 92.2838C180.658 75.7867 198.195 70.477 210.774 77.6439C215.562 80.4159 218.574 85.9486 216.558 91.3099C215.392 93.9674 213.656 96.3359 211.473 98.2474C205.741 103.749 198.574 107.289 190.728 118.74C185.388 126.747 183.507 135.017 184.017 141.304C184.021 141.451 184.08 141.59 184.184 141.694C184.288 141.798 184.427 141.858 184.574 141.861H212.058C212.206 141.86 212.347 141.801 212.451 141.696C212.555 141.592 212.614 141.451 212.615 141.304C212.587 140.367 212.65 139.429 212.804 138.504C213.501 135.775 214.929 133.289 216.936 131.312C223.904 124.036 237.048 115.814 242.593 103.114C245.595 96.1375 246.447 88.4246 245.041 80.9615ZM211.505 140.742H185.094C184.931 133.639 186.914 126.652 190.786 120.694C198.423 108.724 205.738 105.104 211.78 99.4784C216.442 95.134 219.775 90.2023 217.702 84.2262C214.794 76.1155 205.068 72.74 196.458 73.5665C186.657 74.5053 178.574 80.9867 175.9 91.5732H150.079C149.712 89.4291 149.78 87.2329 150.279 85.1157C153.908 68.902 166.118 56.3146 181.488 50.5778C207.875 40.6314 235.433 53.0815 242.858 76.7317C244.584 82.1202 245.042 87.8345 244.198 93.4293C243.353 99.0242 241.229 104.349 237.989 108.988C226.79 124.397 211.417 129.325 211.505 140.742Z" fill="black"/>
<path d="M219 196.595V156.404C218.999 156.298 218.956 156.195 218.88 156.12C218.805 156.044 218.702 156.001 218.595 156H178.405C178.298 156.001 178.196 156.044 178.121 156.12C178.045 156.196 178.002 156.298 178 156.404V196.595C178.002 196.702 178.045 196.804 178.121 196.879C178.196 196.955 178.298 196.998 178.405 197H218.595C218.702 196.998 218.804 196.955 218.88 196.879C218.955 196.803 218.998 196.701 219 196.595ZM218.188 196.19C218.188 196.19 179.213 196.174 178.81 196.183C178.81 196.183 178.826 157.218 178.816 156.81C178.816 156.81 217.783 156.825 218.191 156.816C218.191 186.54 218.183 195.486 218.188 196.19Z" fill="black"/>
<path d="M6.30084 205.405C6.30765 205.548 6.36923 205.683 6.47281 205.782C6.57639 205.881 6.71401 205.936 6.85713 205.936C7.00025 205.936 7.13788 205.881 7.24146 205.782C7.34504 205.683 7.40662 205.548 7.41342 205.405V160.849C17.724 171.213 17.249 170.768 17.375 170.852C17.4523 170.919 17.5467 170.963 17.6475 170.979C17.7482 170.995 17.8515 170.983 17.9458 170.943C18.04 170.904 18.1215 170.84 18.1811 170.757C18.2407 170.674 18.2762 170.576 18.2834 170.474C18.3124 170.334 18.257 154.484 18.257 148.962C18.2539 148.854 18.2195 148.748 18.158 148.659C18.0965 148.57 18.0104 148.5 17.9102 148.458C17.8099 148.417 17.6998 148.405 17.593 148.424C17.4862 148.444 17.3873 148.494 17.3082 148.568L6.46338 159.107C6.38274 159.199 6.09672 158.969 6.13074 160.181C6.20886 162.952 5.69982 172.03 6.30084 205.405ZM17.1469 150.276C17.1469 155.436 17.1772 167.977 17.1772 169.088L7.64778 159.512L17.1469 150.276Z" fill="black"/>
<path d="M47.3222 124.992C47.248 124.866 47.1269 124.774 46.9852 124.737C46.8436 124.7 46.6929 124.72 46.5662 124.793C37.3048 131.927 28.2094 139.274 19.2872 146.827C18.7403 147.289 19.5303 148.073 20.0734 147.613C28.92 140.119 37.9395 132.831 47.1243 125.755C47.2489 125.677 47.3389 125.555 47.3758 125.413C47.4126 125.271 47.3934 125.121 47.3222 124.992Z" fill="black"/>
<path d="M35.8547 187.857C29.4123 180.784 22.447 173.67 20.7914 172.07C20.7397 172.018 20.6784 171.977 20.611 171.949C20.5435 171.921 20.4712 171.907 20.3982 171.907C20.3252 171.907 20.2529 171.921 20.1855 171.949C20.118 171.977 20.0567 172.018 20.0051 172.07C19.9535 172.121 19.9125 172.182 19.8846 172.25C19.8567 172.317 19.8423 172.39 19.8423 172.463C19.8423 172.536 19.8567 172.608 19.8846 172.675C19.9125 172.743 19.9535 172.804 20.0051 172.856C25.8818 178.935 28.8024 181.763 35.0684 188.644C35.551 189.174 36.336 188.385 35.8547 187.857Z" fill="black"/>
<path d="M102.456 81.5389C111.15 74.1805 120.235 66.8221 129.509 59.6792C129.633 59.6022 129.722 59.4812 129.759 59.3408C129.796 59.2004 129.779 59.0511 129.71 58.9232C129.635 58.7971 129.514 58.7055 129.373 58.6682C129.231 58.6309 129.081 58.651 128.954 58.7241C119.692 65.8578 110.597 73.2043 101.675 80.7577C101.123 81.2151 101.913 81.9988 102.456 81.5389Z" fill="black"/>
<path d="M91.1364 145.687C90.9989 145.654 90.8539 145.674 90.7312 145.745C90.6085 145.815 90.5172 145.929 90.4761 146.065C90.2745 146.793 90.0603 147.516 89.8726 148.247C89.8367 148.388 89.8577 148.538 89.9309 148.664C90.0041 148.79 90.1238 148.882 90.2643 148.921C90.4048 148.96 90.5549 148.942 90.6823 148.871C90.8098 148.801 90.9045 148.683 90.9461 148.543C91.1595 147.818 91.3602 147.091 91.5484 146.361C91.5666 146.29 91.5702 146.215 91.5593 146.142C91.5483 146.07 91.5228 146 91.4844 145.937C91.4461 145.874 91.3955 145.82 91.3357 145.777C91.2759 145.734 91.2082 145.703 91.1364 145.687Z" fill="black"/>
<path d="M95.9148 148.519C95.6325 149.073 95.2242 149.552 94.7228 149.919C94.147 150.332 94.7014 151.299 95.2835 150.879C95.9477 150.413 96.4932 149.797 96.8762 149.081C97.2088 148.449 96.2487 147.885 95.9148 148.519Z" fill="black"/>
<path d="M88.897 183.244L85.5202 184.241C85.3847 184.286 85.2716 184.381 85.2043 184.507C85.1371 184.633 85.1208 184.78 85.1588 184.918C85.1968 185.056 85.2862 185.173 85.4086 185.247C85.5309 185.321 85.6769 185.344 85.8163 185.313C86.9503 185.011 88.0666 184.649 89.1918 184.318C89.33 184.275 89.4461 184.18 89.5156 184.054C89.5851 183.927 89.6026 183.778 89.5643 183.638C89.526 183.499 89.4349 183.38 89.3104 183.306C89.1859 183.233 89.0376 183.211 88.897 183.244Z" fill="black"/>
</svg>
